G04 (created by PCBNEW (2013-07-07 BZR 4022)-stable) date 3/23/2015 10:09:48 AM*
%MOIN*%
G04 Gerber Fmt 3.4, Leading zero omitted, Abs format*
%FSLAX34Y34*%
G01*
G70*
G90*
G04 APERTURE LIST*
%ADD10C,0.00590551*%
%ADD11C,0.00708661*%
%ADD12C,0.005*%
%ADD13C,0.012*%
%ADD14C,0.0026*%
%ADD15C,0.004*%
%ADD16C,0.00787402*%
%ADD17C,0.008*%
%ADD18C,4.72441e-006*%
%ADD19C,0.0031*%
G04 APERTURE END LIST*
G54D10*
G54D11*
X82016Y-78378D02*
X81898Y-78378D01*
X81898Y-78584D02*
X81898Y-78190D01*
X82066Y-78190D01*
X82201Y-78584D02*
X82201Y-78322D01*
X82201Y-78190D02*
X82185Y-78209D01*
X82201Y-78228D01*
X82218Y-78209D01*
X82201Y-78190D01*
X82201Y-78228D01*
X82370Y-78584D02*
X82370Y-78322D01*
X82370Y-78397D02*
X82387Y-78359D01*
X82404Y-78340D01*
X82438Y-78322D01*
X82471Y-78322D01*
X82724Y-78565D02*
X82691Y-78584D01*
X82623Y-78584D01*
X82589Y-78565D01*
X82573Y-78528D01*
X82573Y-78378D01*
X82589Y-78340D01*
X82623Y-78322D01*
X82691Y-78322D01*
X82724Y-78340D01*
X82741Y-78378D01*
X82741Y-78415D01*
X82573Y-78453D01*
X82843Y-78322D02*
X82978Y-78322D01*
X82893Y-78584D02*
X82893Y-78247D01*
X82910Y-78209D01*
X82944Y-78190D01*
X82978Y-78190D01*
X83146Y-78584D02*
X83113Y-78565D01*
X83096Y-78547D01*
X83079Y-78509D01*
X83079Y-78397D01*
X83096Y-78359D01*
X83113Y-78340D01*
X83146Y-78322D01*
X83197Y-78322D01*
X83231Y-78340D01*
X83248Y-78359D01*
X83264Y-78397D01*
X83264Y-78509D01*
X83248Y-78547D01*
X83231Y-78565D01*
X83197Y-78584D01*
X83146Y-78584D01*
X83383Y-78584D02*
X83568Y-78322D01*
X83383Y-78322D02*
X83568Y-78584D01*
X83771Y-78190D02*
X83838Y-78190D01*
X83872Y-78209D01*
X83906Y-78247D01*
X83922Y-78322D01*
X83922Y-78453D01*
X83906Y-78528D01*
X83872Y-78565D01*
X83838Y-78584D01*
X83771Y-78584D01*
X83737Y-78565D01*
X83703Y-78528D01*
X83686Y-78453D01*
X83686Y-78322D01*
X83703Y-78247D01*
X83737Y-78209D01*
X83771Y-78190D01*
X84057Y-78565D02*
X84108Y-78584D01*
X84192Y-78584D01*
X84226Y-78565D01*
X84243Y-78547D01*
X84260Y-78509D01*
X84260Y-78472D01*
X84243Y-78434D01*
X84226Y-78415D01*
X84192Y-78397D01*
X84125Y-78378D01*
X84091Y-78359D01*
X84074Y-78340D01*
X84057Y-78303D01*
X84057Y-78265D01*
X84074Y-78228D01*
X84091Y-78209D01*
X84125Y-78190D01*
X84209Y-78190D01*
X84260Y-78209D01*
X79293Y-75390D02*
X79030Y-75390D01*
X79068Y-75390D02*
X79049Y-75374D01*
X79030Y-75340D01*
X79030Y-75289D01*
X79049Y-75255D01*
X79086Y-75239D01*
X79293Y-75239D01*
X79086Y-75239D02*
X79049Y-75222D01*
X79030Y-75188D01*
X79030Y-75137D01*
X79049Y-75104D01*
X79086Y-75087D01*
X79293Y-75087D01*
X79293Y-74867D02*
X79274Y-74901D01*
X79255Y-74918D01*
X79218Y-74935D01*
X79105Y-74935D01*
X79068Y-74918D01*
X79049Y-74901D01*
X79030Y-74867D01*
X79030Y-74817D01*
X79049Y-74783D01*
X79068Y-74766D01*
X79105Y-74749D01*
X79218Y-74749D01*
X79255Y-74766D01*
X79274Y-74783D01*
X79293Y-74817D01*
X79293Y-74867D01*
X79030Y-74631D02*
X79030Y-74446D01*
X79293Y-74631D01*
X79293Y-74446D01*
X79293Y-74311D02*
X79030Y-74311D01*
X78899Y-74311D02*
X78918Y-74327D01*
X78937Y-74311D01*
X78918Y-74294D01*
X78899Y-74311D01*
X78937Y-74311D01*
X79293Y-74091D02*
X79274Y-74125D01*
X79236Y-74142D01*
X78899Y-74142D01*
X79293Y-73906D02*
X79274Y-73939D01*
X79236Y-73956D01*
X78899Y-73956D01*
X79293Y-73619D02*
X79086Y-73619D01*
X79049Y-73636D01*
X79030Y-73669D01*
X79030Y-73737D01*
X79049Y-73771D01*
X79274Y-73619D02*
X79293Y-73652D01*
X79293Y-73737D01*
X79274Y-73771D01*
X79236Y-73787D01*
X79199Y-73787D01*
X79161Y-73771D01*
X79143Y-73737D01*
X79143Y-73652D01*
X79124Y-73619D01*
X79180Y-73197D02*
X79180Y-73028D01*
X79293Y-73231D02*
X78899Y-73113D01*
X79293Y-72994D01*
X79293Y-72876D02*
X79030Y-72876D01*
X79068Y-72876D02*
X79049Y-72859D01*
X79030Y-72826D01*
X79030Y-72775D01*
X79049Y-72741D01*
X79086Y-72724D01*
X79293Y-72724D01*
X79086Y-72724D02*
X79049Y-72708D01*
X79030Y-72674D01*
X79030Y-72623D01*
X79049Y-72589D01*
X79086Y-72573D01*
X79293Y-72573D01*
X79293Y-72404D02*
X79030Y-72404D01*
X79068Y-72404D02*
X79049Y-72387D01*
X79030Y-72353D01*
X79030Y-72303D01*
X79049Y-72269D01*
X79086Y-72252D01*
X79293Y-72252D01*
X79086Y-72252D02*
X79049Y-72235D01*
X79030Y-72201D01*
X79030Y-72151D01*
X79049Y-72117D01*
X79086Y-72100D01*
X79293Y-72100D01*
X79274Y-71796D02*
X79293Y-71830D01*
X79293Y-71898D01*
X79274Y-71931D01*
X79236Y-71948D01*
X79086Y-71948D01*
X79049Y-71931D01*
X79030Y-71898D01*
X79030Y-71830D01*
X79049Y-71796D01*
X79086Y-71780D01*
X79124Y-71780D01*
X79161Y-71948D01*
X79030Y-71678D02*
X79030Y-71543D01*
X78899Y-71628D02*
X79236Y-71628D01*
X79274Y-71611D01*
X79293Y-71577D01*
X79293Y-71543D01*
X79274Y-71290D02*
X79293Y-71324D01*
X79293Y-71392D01*
X79274Y-71425D01*
X79236Y-71442D01*
X79086Y-71442D01*
X79049Y-71425D01*
X79030Y-71392D01*
X79030Y-71324D01*
X79049Y-71290D01*
X79086Y-71273D01*
X79124Y-71273D01*
X79161Y-71442D01*
X79293Y-71122D02*
X79030Y-71122D01*
X79105Y-71122D02*
X79068Y-71105D01*
X79049Y-71088D01*
X79030Y-71054D01*
X79030Y-71020D01*
X79030Y-70666D02*
X79293Y-70582D01*
X79030Y-70497D01*
X78899Y-70295D02*
X78899Y-70261D01*
X78918Y-70227D01*
X78937Y-70210D01*
X78974Y-70194D01*
X79049Y-70177D01*
X79143Y-70177D01*
X79218Y-70194D01*
X79255Y-70210D01*
X79274Y-70227D01*
X79293Y-70261D01*
X79293Y-70295D01*
X79274Y-70329D01*
X79255Y-70345D01*
X79218Y-70362D01*
X79143Y-70379D01*
X79049Y-70379D01*
X78974Y-70362D01*
X78937Y-70345D01*
X78918Y-70329D01*
X78899Y-70295D01*
X79255Y-70025D02*
X79274Y-70008D01*
X79293Y-70025D01*
X79274Y-70042D01*
X79255Y-70025D01*
X79293Y-70025D01*
X78899Y-69890D02*
X78899Y-69654D01*
X79293Y-69805D01*
X86754Y-66769D02*
X86773Y-66732D01*
X86773Y-66657D01*
X86754Y-66619D01*
X86717Y-66601D01*
X86698Y-66601D01*
X86661Y-66619D01*
X86642Y-66657D01*
X86642Y-66713D01*
X86623Y-66751D01*
X86586Y-66769D01*
X86567Y-66769D01*
X86529Y-66751D01*
X86511Y-66713D01*
X86511Y-66657D01*
X86529Y-66619D01*
X86511Y-66488D02*
X86511Y-66338D01*
X86379Y-66432D02*
X86717Y-66432D01*
X86754Y-66413D01*
X86773Y-66376D01*
X86773Y-66338D01*
X86773Y-66038D02*
X86567Y-66038D01*
X86529Y-66057D01*
X86511Y-66094D01*
X86511Y-66169D01*
X86529Y-66207D01*
X86754Y-66038D02*
X86773Y-66076D01*
X86773Y-66169D01*
X86754Y-66207D01*
X86717Y-66226D01*
X86679Y-66226D01*
X86642Y-66207D01*
X86623Y-66169D01*
X86623Y-66076D01*
X86604Y-66038D01*
X86511Y-65907D02*
X86511Y-65757D01*
X86379Y-65851D02*
X86717Y-65851D01*
X86754Y-65832D01*
X86773Y-65794D01*
X86773Y-65757D01*
X86511Y-65457D02*
X86773Y-65457D01*
X86511Y-65626D02*
X86717Y-65626D01*
X86754Y-65607D01*
X86773Y-65569D01*
X86773Y-65513D01*
X86754Y-65476D01*
X86736Y-65457D01*
X86754Y-65288D02*
X86773Y-65251D01*
X86773Y-65176D01*
X86754Y-65138D01*
X86717Y-65119D01*
X86698Y-65119D01*
X86661Y-65138D01*
X86642Y-65176D01*
X86642Y-65232D01*
X86623Y-65269D01*
X86586Y-65288D01*
X86567Y-65288D01*
X86529Y-65269D01*
X86511Y-65232D01*
X86511Y-65176D01*
X86529Y-65138D01*
X81294Y-66704D02*
X81688Y-66704D01*
X81313Y-66704D02*
X81294Y-66666D01*
X81294Y-66591D01*
X81313Y-66554D01*
X81332Y-66535D01*
X81369Y-66516D01*
X81482Y-66516D01*
X81519Y-66535D01*
X81538Y-66554D01*
X81556Y-66591D01*
X81556Y-66666D01*
X81538Y-66704D01*
X81556Y-66291D02*
X81538Y-66329D01*
X81519Y-66347D01*
X81482Y-66366D01*
X81369Y-66366D01*
X81332Y-66347D01*
X81313Y-66329D01*
X81294Y-66291D01*
X81294Y-66235D01*
X81313Y-66197D01*
X81332Y-66179D01*
X81369Y-66160D01*
X81482Y-66160D01*
X81519Y-66179D01*
X81538Y-66197D01*
X81556Y-66235D01*
X81556Y-66291D01*
X81294Y-66029D02*
X81556Y-65954D01*
X81369Y-65879D01*
X81556Y-65804D01*
X81294Y-65729D01*
X81538Y-65429D02*
X81556Y-65466D01*
X81556Y-65541D01*
X81538Y-65579D01*
X81500Y-65598D01*
X81350Y-65598D01*
X81313Y-65579D01*
X81294Y-65541D01*
X81294Y-65466D01*
X81313Y-65429D01*
X81350Y-65410D01*
X81388Y-65410D01*
X81425Y-65598D01*
X81556Y-65241D02*
X81294Y-65241D01*
X81369Y-65241D02*
X81332Y-65223D01*
X81313Y-65204D01*
X81294Y-65166D01*
X81294Y-65129D01*
G54D12*
X81992Y-77148D02*
X81992Y-78048D01*
X81992Y-78048D02*
X82642Y-78048D01*
X83342Y-77148D02*
X83992Y-77148D01*
X83992Y-77148D02*
X83992Y-78048D01*
X83992Y-78048D02*
X83342Y-78048D01*
X82642Y-77148D02*
X81992Y-77148D01*
X82238Y-66183D02*
X82238Y-67083D01*
X82238Y-67083D02*
X81738Y-67083D01*
X81738Y-67083D02*
X81738Y-66183D01*
X81738Y-66183D02*
X82238Y-66183D01*
X82198Y-75927D02*
X82198Y-76827D01*
X82198Y-76827D02*
X81698Y-76827D01*
X81698Y-76827D02*
X81698Y-75927D01*
X81698Y-75927D02*
X82198Y-75927D01*
X87457Y-74659D02*
X86557Y-74659D01*
X86557Y-74659D02*
X86557Y-74159D01*
X86557Y-74159D02*
X87457Y-74159D01*
X87457Y-74159D02*
X87457Y-74659D01*
X88045Y-72089D02*
X88045Y-72989D01*
X88045Y-72989D02*
X87545Y-72989D01*
X87545Y-72989D02*
X87545Y-72089D01*
X87545Y-72089D02*
X88045Y-72089D01*
X83801Y-75143D02*
X84701Y-75143D01*
X84701Y-75143D02*
X84701Y-75643D01*
X84701Y-75643D02*
X83801Y-75643D01*
X83801Y-75643D02*
X83801Y-75143D01*
X86372Y-66183D02*
X86372Y-67083D01*
X86372Y-67083D02*
X85872Y-67083D01*
X85872Y-67083D02*
X85872Y-66183D01*
X85872Y-66183D02*
X86372Y-66183D01*
X86372Y-67955D02*
X86372Y-68855D01*
X86372Y-68855D02*
X85872Y-68855D01*
X85872Y-68855D02*
X85872Y-67955D01*
X85872Y-67955D02*
X86372Y-67955D01*
X85683Y-67955D02*
X85683Y-68855D01*
X85683Y-68855D02*
X85183Y-68855D01*
X85183Y-68855D02*
X85183Y-67955D01*
X85183Y-67955D02*
X85683Y-67955D01*
X80753Y-66591D02*
X80753Y-65691D01*
X80753Y-65691D02*
X81253Y-65691D01*
X81253Y-65691D02*
X81253Y-66591D01*
X81253Y-66591D02*
X80753Y-66591D01*
G54D13*
X88143Y-69344D02*
X88143Y-67844D01*
X88143Y-67844D02*
X87643Y-67844D01*
X87643Y-67844D02*
X87643Y-69344D01*
X87643Y-69344D02*
X88143Y-69344D01*
X87348Y-75045D02*
X87348Y-76545D01*
X87348Y-76545D02*
X87848Y-76545D01*
X87848Y-76545D02*
X87848Y-75045D01*
X87848Y-75045D02*
X87348Y-75045D01*
G54D12*
X88247Y-71555D02*
X88467Y-71555D01*
X87737Y-71380D02*
X87997Y-71120D01*
X87737Y-71320D02*
X87932Y-71120D01*
X88247Y-71810D02*
X88467Y-71810D01*
X88247Y-71300D02*
X88467Y-71300D01*
X87737Y-71555D02*
X87517Y-71555D01*
X87737Y-71810D02*
X87517Y-71810D01*
X87737Y-71300D02*
X87517Y-71300D01*
X88247Y-71120D02*
X88247Y-71990D01*
X88247Y-71990D02*
X87737Y-71990D01*
X87737Y-71990D02*
X87737Y-71120D01*
X87737Y-71120D02*
X88247Y-71120D01*
X85884Y-77362D02*
X86104Y-77362D01*
X85374Y-77187D02*
X85634Y-76927D01*
X85374Y-77127D02*
X85569Y-76927D01*
X85884Y-77617D02*
X86104Y-77617D01*
X85884Y-77107D02*
X86104Y-77107D01*
X85374Y-77362D02*
X85154Y-77362D01*
X85374Y-77617D02*
X85154Y-77617D01*
X85374Y-77107D02*
X85154Y-77107D01*
X85884Y-76927D02*
X85884Y-77797D01*
X85884Y-77797D02*
X85374Y-77797D01*
X85374Y-77797D02*
X85374Y-76927D01*
X85374Y-76927D02*
X85884Y-76927D01*
G54D14*
X85945Y-65374D02*
X86299Y-65374D01*
X86299Y-65374D02*
X86299Y-65217D01*
X85945Y-65217D02*
X86299Y-65217D01*
X85945Y-65374D02*
X85945Y-65217D01*
X85945Y-65885D02*
X86299Y-65885D01*
X86299Y-65885D02*
X86299Y-65728D01*
X85945Y-65728D02*
X86299Y-65728D01*
X85945Y-65885D02*
X85945Y-65728D01*
X85945Y-65551D02*
X86004Y-65551D01*
X86004Y-65551D02*
X86004Y-65433D01*
X85945Y-65433D02*
X86004Y-65433D01*
X85945Y-65551D02*
X85945Y-65433D01*
X86240Y-65551D02*
X86299Y-65551D01*
X86299Y-65551D02*
X86299Y-65433D01*
X86240Y-65433D02*
X86299Y-65433D01*
X86240Y-65551D02*
X86240Y-65433D01*
X86063Y-65551D02*
X86181Y-65551D01*
X86181Y-65551D02*
X86181Y-65433D01*
X86063Y-65433D02*
X86181Y-65433D01*
X86063Y-65551D02*
X86063Y-65433D01*
G54D15*
X85965Y-65374D02*
X85965Y-65728D01*
X86279Y-65374D02*
X86279Y-65728D01*
G54D14*
X88169Y-74232D02*
X88169Y-74586D01*
X88169Y-74586D02*
X88326Y-74586D01*
X88326Y-74232D02*
X88326Y-74586D01*
X88169Y-74232D02*
X88326Y-74232D01*
X87658Y-74232D02*
X87658Y-74586D01*
X87658Y-74586D02*
X87815Y-74586D01*
X87815Y-74232D02*
X87815Y-74586D01*
X87658Y-74232D02*
X87815Y-74232D01*
X87992Y-74232D02*
X87992Y-74291D01*
X87992Y-74291D02*
X88110Y-74291D01*
X88110Y-74232D02*
X88110Y-74291D01*
X87992Y-74232D02*
X88110Y-74232D01*
X87992Y-74527D02*
X87992Y-74586D01*
X87992Y-74586D02*
X88110Y-74586D01*
X88110Y-74527D02*
X88110Y-74586D01*
X87992Y-74527D02*
X88110Y-74527D01*
X87992Y-74350D02*
X87992Y-74468D01*
X87992Y-74468D02*
X88110Y-74468D01*
X88110Y-74350D02*
X88110Y-74468D01*
X87992Y-74350D02*
X88110Y-74350D01*
G54D15*
X88169Y-74252D02*
X87815Y-74252D01*
X88169Y-74566D02*
X87815Y-74566D01*
G54D14*
X81811Y-65374D02*
X82165Y-65374D01*
X82165Y-65374D02*
X82165Y-65217D01*
X81811Y-65217D02*
X82165Y-65217D01*
X81811Y-65374D02*
X81811Y-65217D01*
X81811Y-65885D02*
X82165Y-65885D01*
X82165Y-65885D02*
X82165Y-65728D01*
X81811Y-65728D02*
X82165Y-65728D01*
X81811Y-65885D02*
X81811Y-65728D01*
X81811Y-65551D02*
X81870Y-65551D01*
X81870Y-65551D02*
X81870Y-65433D01*
X81811Y-65433D02*
X81870Y-65433D01*
X81811Y-65551D02*
X81811Y-65433D01*
X82106Y-65551D02*
X82165Y-65551D01*
X82165Y-65551D02*
X82165Y-65433D01*
X82106Y-65433D02*
X82165Y-65433D01*
X82106Y-65551D02*
X82106Y-65433D01*
X81929Y-65551D02*
X82047Y-65551D01*
X82047Y-65551D02*
X82047Y-65433D01*
X81929Y-65433D02*
X82047Y-65433D01*
X81929Y-65551D02*
X81929Y-65433D01*
G54D15*
X81831Y-65374D02*
X81831Y-65728D01*
X82145Y-65374D02*
X82145Y-65728D01*
G54D13*
X81014Y-73245D02*
X81014Y-71045D01*
X81014Y-71045D02*
X79614Y-71045D01*
X79614Y-71045D02*
X79614Y-73245D01*
X79614Y-73245D02*
X81014Y-73245D01*
G54D12*
X82620Y-68183D02*
X82620Y-68823D01*
X83520Y-68823D02*
X83520Y-68183D01*
X83700Y-68823D02*
X83700Y-68183D01*
X83700Y-68183D02*
X82440Y-68183D01*
X82440Y-68183D02*
X82440Y-68823D01*
X82440Y-68823D02*
X83700Y-68823D01*
X86454Y-78172D02*
X86774Y-78172D01*
X86764Y-77732D02*
X86454Y-77732D01*
X86774Y-77632D02*
X86774Y-78272D01*
X86774Y-78272D02*
X86454Y-78272D01*
X86454Y-78272D02*
X86454Y-77632D01*
X86454Y-77632D02*
X86774Y-77632D01*
X88447Y-70252D02*
X88127Y-70252D01*
X88137Y-70692D02*
X88447Y-70692D01*
X88127Y-70792D02*
X88127Y-70152D01*
X88127Y-70152D02*
X88447Y-70152D01*
X88447Y-70152D02*
X88447Y-70792D01*
X88447Y-70792D02*
X88127Y-70792D01*
X81336Y-71479D02*
X81656Y-71479D01*
X81646Y-71039D02*
X81336Y-71039D01*
X81656Y-70939D02*
X81656Y-71579D01*
X81656Y-71579D02*
X81336Y-71579D01*
X81336Y-71579D02*
X81336Y-70939D01*
X81336Y-70939D02*
X81656Y-70939D01*
X79293Y-76059D02*
X78973Y-76059D01*
X78983Y-76499D02*
X79293Y-76499D01*
X78973Y-76599D02*
X78973Y-75959D01*
X78973Y-75959D02*
X79293Y-75959D01*
X79293Y-75959D02*
X79293Y-76599D01*
X79293Y-76599D02*
X78973Y-76599D01*
X87955Y-73303D02*
X87635Y-73303D01*
X87645Y-73743D02*
X87955Y-73743D01*
X87635Y-73843D02*
X87635Y-73203D01*
X87635Y-73203D02*
X87955Y-73203D01*
X87955Y-73203D02*
X87955Y-73843D01*
X87955Y-73843D02*
X87635Y-73843D01*
X82306Y-75553D02*
X82306Y-75233D01*
X81866Y-75243D02*
X81866Y-75553D01*
X81766Y-75233D02*
X82406Y-75233D01*
X82406Y-75233D02*
X82406Y-75553D01*
X82406Y-75553D02*
X81766Y-75553D01*
X81766Y-75553D02*
X81766Y-75233D01*
X79859Y-74432D02*
X80179Y-74432D01*
X80169Y-73992D02*
X79859Y-73992D01*
X80179Y-73892D02*
X80179Y-74532D01*
X80179Y-74532D02*
X79859Y-74532D01*
X79859Y-74532D02*
X79859Y-73892D01*
X79859Y-73892D02*
X80179Y-73892D01*
X84288Y-68822D02*
X84608Y-68822D01*
X84598Y-68382D02*
X84288Y-68382D01*
X84608Y-68282D02*
X84608Y-68922D01*
X84608Y-68922D02*
X84288Y-68922D01*
X84288Y-68922D02*
X84288Y-68282D01*
X84288Y-68282D02*
X84608Y-68282D01*
X80450Y-74432D02*
X80770Y-74432D01*
X80760Y-73992D02*
X80450Y-73992D01*
X80770Y-73892D02*
X80770Y-74532D01*
X80770Y-74532D02*
X80450Y-74532D01*
X80450Y-74532D02*
X80450Y-73892D01*
X80450Y-73892D02*
X80770Y-73892D01*
X80100Y-76118D02*
X79780Y-76118D01*
X79790Y-76558D02*
X80100Y-76558D01*
X79780Y-76658D02*
X79780Y-76018D01*
X79780Y-76018D02*
X80100Y-76018D01*
X80100Y-76018D02*
X80100Y-76658D01*
X80100Y-76658D02*
X79780Y-76658D01*
X84584Y-77188D02*
X84904Y-77188D01*
X84894Y-76748D02*
X84584Y-76748D01*
X84904Y-76648D02*
X84904Y-77288D01*
X84904Y-77288D02*
X84584Y-77288D01*
X84584Y-77288D02*
X84584Y-76648D01*
X84584Y-76648D02*
X84904Y-76648D01*
X88166Y-73349D02*
X88486Y-73349D01*
X88476Y-72909D02*
X88166Y-72909D01*
X88486Y-72809D02*
X88486Y-73449D01*
X88486Y-73449D02*
X88166Y-73449D01*
X88166Y-73449D02*
X88166Y-72809D01*
X88166Y-72809D02*
X88486Y-72809D01*
G54D13*
X80964Y-70334D02*
X80964Y-67303D01*
X80964Y-67303D02*
X80452Y-67303D01*
X80452Y-67303D02*
X80452Y-70334D01*
X80452Y-70334D02*
X80964Y-70334D01*
X79527Y-69291D02*
X79527Y-69291D01*
X79527Y-69291D02*
X79527Y-69291D01*
X79527Y-69291D02*
X79527Y-69291D01*
X79527Y-69291D02*
X79527Y-69291D01*
G54D12*
X84490Y-77998D02*
X85390Y-77998D01*
X85390Y-77998D02*
X85390Y-78498D01*
X85390Y-78498D02*
X84490Y-78498D01*
X84490Y-78498D02*
X84490Y-77998D01*
G54D16*
X86437Y-73976D02*
X86437Y-70826D01*
X86437Y-70826D02*
X85964Y-70354D01*
X85964Y-70354D02*
X82814Y-70354D01*
G54D14*
X86043Y-69843D02*
X86043Y-70296D01*
X86043Y-70296D02*
X86200Y-70296D01*
X86200Y-69843D02*
X86200Y-70296D01*
X86043Y-69843D02*
X86200Y-69843D01*
X85728Y-69843D02*
X85728Y-70296D01*
X85728Y-70296D02*
X85885Y-70296D01*
X85885Y-69843D02*
X85885Y-70296D01*
X85728Y-69843D02*
X85885Y-69843D01*
X85413Y-69843D02*
X85413Y-70296D01*
X85413Y-70296D02*
X85570Y-70296D01*
X85570Y-69843D02*
X85570Y-70296D01*
X85413Y-69843D02*
X85570Y-69843D01*
X85098Y-69843D02*
X85098Y-70296D01*
X85098Y-70296D02*
X85255Y-70296D01*
X85255Y-69843D02*
X85255Y-70296D01*
X85098Y-69843D02*
X85255Y-69843D01*
X84783Y-69843D02*
X84783Y-70296D01*
X84783Y-70296D02*
X84940Y-70296D01*
X84940Y-69843D02*
X84940Y-70296D01*
X84783Y-69843D02*
X84940Y-69843D01*
X84469Y-69843D02*
X84469Y-70296D01*
X84469Y-70296D02*
X84625Y-70296D01*
X84625Y-69843D02*
X84625Y-70296D01*
X84469Y-69843D02*
X84625Y-69843D01*
X84154Y-69843D02*
X84154Y-70296D01*
X84154Y-70296D02*
X84311Y-70296D01*
X84311Y-69843D02*
X84311Y-70296D01*
X84154Y-69843D02*
X84311Y-69843D01*
X83839Y-69843D02*
X83839Y-70296D01*
X83839Y-70296D02*
X83996Y-70296D01*
X83996Y-69843D02*
X83996Y-70296D01*
X83839Y-69843D02*
X83996Y-69843D01*
X83524Y-69843D02*
X83524Y-70296D01*
X83524Y-70296D02*
X83681Y-70296D01*
X83681Y-69843D02*
X83681Y-70296D01*
X83524Y-69843D02*
X83681Y-69843D01*
X83209Y-69843D02*
X83209Y-70296D01*
X83209Y-70296D02*
X83366Y-70296D01*
X83366Y-69843D02*
X83366Y-70296D01*
X83209Y-69843D02*
X83366Y-69843D01*
X82894Y-69843D02*
X82894Y-70296D01*
X82894Y-70296D02*
X83051Y-70296D01*
X83051Y-69843D02*
X83051Y-70296D01*
X82894Y-69843D02*
X83051Y-69843D01*
X82146Y-70591D02*
X82146Y-70748D01*
X82146Y-70748D02*
X82599Y-70748D01*
X82599Y-70591D02*
X82599Y-70748D01*
X82146Y-70591D02*
X82599Y-70591D01*
X82146Y-70906D02*
X82146Y-71063D01*
X82146Y-71063D02*
X82599Y-71063D01*
X82599Y-70906D02*
X82599Y-71063D01*
X82146Y-70906D02*
X82599Y-70906D01*
X82146Y-71221D02*
X82146Y-71378D01*
X82146Y-71378D02*
X82599Y-71378D01*
X82599Y-71221D02*
X82599Y-71378D01*
X82146Y-71221D02*
X82599Y-71221D01*
X82146Y-71536D02*
X82146Y-71693D01*
X82146Y-71693D02*
X82599Y-71693D01*
X82599Y-71536D02*
X82599Y-71693D01*
X82146Y-71536D02*
X82599Y-71536D01*
X82146Y-71851D02*
X82146Y-72008D01*
X82146Y-72008D02*
X82599Y-72008D01*
X82599Y-71851D02*
X82599Y-72008D01*
X82146Y-71851D02*
X82599Y-71851D01*
X82146Y-72166D02*
X82146Y-72322D01*
X82146Y-72322D02*
X82599Y-72322D01*
X82599Y-72166D02*
X82599Y-72322D01*
X82146Y-72166D02*
X82599Y-72166D01*
X82146Y-72480D02*
X82146Y-72637D01*
X82146Y-72637D02*
X82599Y-72637D01*
X82599Y-72480D02*
X82599Y-72637D01*
X82146Y-72480D02*
X82599Y-72480D01*
X82146Y-72795D02*
X82146Y-72952D01*
X82146Y-72952D02*
X82599Y-72952D01*
X82599Y-72795D02*
X82599Y-72952D01*
X82146Y-72795D02*
X82599Y-72795D01*
X82146Y-73110D02*
X82146Y-73267D01*
X82146Y-73267D02*
X82599Y-73267D01*
X82599Y-73110D02*
X82599Y-73267D01*
X82146Y-73110D02*
X82599Y-73110D01*
X82146Y-73425D02*
X82146Y-73582D01*
X82146Y-73582D02*
X82599Y-73582D01*
X82599Y-73425D02*
X82599Y-73582D01*
X82146Y-73425D02*
X82599Y-73425D01*
X82146Y-73740D02*
X82146Y-73897D01*
X82146Y-73897D02*
X82599Y-73897D01*
X82599Y-73740D02*
X82599Y-73897D01*
X82146Y-73740D02*
X82599Y-73740D01*
X82894Y-74192D02*
X82894Y-74645D01*
X82894Y-74645D02*
X83051Y-74645D01*
X83051Y-74192D02*
X83051Y-74645D01*
X82894Y-74192D02*
X83051Y-74192D01*
X83209Y-74192D02*
X83209Y-74645D01*
X83209Y-74645D02*
X83366Y-74645D01*
X83366Y-74192D02*
X83366Y-74645D01*
X83209Y-74192D02*
X83366Y-74192D01*
X83524Y-74192D02*
X83524Y-74645D01*
X83524Y-74645D02*
X83681Y-74645D01*
X83681Y-74192D02*
X83681Y-74645D01*
X83524Y-74192D02*
X83681Y-74192D01*
X83839Y-74192D02*
X83839Y-74645D01*
X83839Y-74645D02*
X83996Y-74645D01*
X83996Y-74192D02*
X83996Y-74645D01*
X83839Y-74192D02*
X83996Y-74192D01*
X84154Y-74192D02*
X84154Y-74645D01*
X84154Y-74645D02*
X84311Y-74645D01*
X84311Y-74192D02*
X84311Y-74645D01*
X84154Y-74192D02*
X84311Y-74192D01*
X84469Y-74192D02*
X84469Y-74645D01*
X84469Y-74645D02*
X84625Y-74645D01*
X84625Y-74192D02*
X84625Y-74645D01*
X84469Y-74192D02*
X84625Y-74192D01*
X84783Y-74192D02*
X84783Y-74645D01*
X84783Y-74645D02*
X84940Y-74645D01*
X84940Y-74192D02*
X84940Y-74645D01*
X84783Y-74192D02*
X84940Y-74192D01*
X85098Y-74192D02*
X85098Y-74645D01*
X85098Y-74645D02*
X85255Y-74645D01*
X85255Y-74192D02*
X85255Y-74645D01*
X85098Y-74192D02*
X85255Y-74192D01*
X85413Y-74192D02*
X85413Y-74645D01*
X85413Y-74645D02*
X85570Y-74645D01*
X85570Y-74192D02*
X85570Y-74645D01*
X85413Y-74192D02*
X85570Y-74192D01*
X85728Y-74192D02*
X85728Y-74645D01*
X85728Y-74645D02*
X85885Y-74645D01*
X85885Y-74192D02*
X85885Y-74645D01*
X85728Y-74192D02*
X85885Y-74192D01*
X86043Y-74192D02*
X86043Y-74645D01*
X86043Y-74645D02*
X86200Y-74645D01*
X86200Y-74192D02*
X86200Y-74645D01*
X86043Y-74192D02*
X86200Y-74192D01*
X86495Y-73740D02*
X86495Y-73897D01*
X86495Y-73897D02*
X86948Y-73897D01*
X86948Y-73740D02*
X86948Y-73897D01*
X86495Y-73740D02*
X86948Y-73740D01*
X86495Y-73425D02*
X86495Y-73582D01*
X86495Y-73582D02*
X86948Y-73582D01*
X86948Y-73425D02*
X86948Y-73582D01*
X86495Y-73425D02*
X86948Y-73425D01*
X86495Y-73110D02*
X86495Y-73267D01*
X86495Y-73267D02*
X86948Y-73267D01*
X86948Y-73110D02*
X86948Y-73267D01*
X86495Y-73110D02*
X86948Y-73110D01*
X86495Y-72795D02*
X86495Y-72952D01*
X86495Y-72952D02*
X86948Y-72952D01*
X86948Y-72795D02*
X86948Y-72952D01*
X86495Y-72795D02*
X86948Y-72795D01*
X86495Y-72480D02*
X86495Y-72637D01*
X86495Y-72637D02*
X86948Y-72637D01*
X86948Y-72480D02*
X86948Y-72637D01*
X86495Y-72480D02*
X86948Y-72480D01*
X86495Y-72166D02*
X86495Y-72322D01*
X86495Y-72322D02*
X86948Y-72322D01*
X86948Y-72166D02*
X86948Y-72322D01*
X86495Y-72166D02*
X86948Y-72166D01*
X86495Y-71851D02*
X86495Y-72008D01*
X86495Y-72008D02*
X86948Y-72008D01*
X86948Y-71851D02*
X86948Y-72008D01*
X86495Y-71851D02*
X86948Y-71851D01*
X86495Y-71536D02*
X86495Y-71693D01*
X86495Y-71693D02*
X86948Y-71693D01*
X86948Y-71536D02*
X86948Y-71693D01*
X86495Y-71536D02*
X86948Y-71536D01*
X86495Y-71221D02*
X86495Y-71378D01*
X86495Y-71378D02*
X86948Y-71378D01*
X86948Y-71221D02*
X86948Y-71378D01*
X86495Y-71221D02*
X86948Y-71221D01*
X86495Y-70906D02*
X86495Y-71063D01*
X86495Y-71063D02*
X86948Y-71063D01*
X86948Y-70906D02*
X86948Y-71063D01*
X86495Y-70906D02*
X86948Y-70906D01*
X86495Y-70591D02*
X86495Y-70748D01*
X86495Y-70748D02*
X86948Y-70748D01*
X86948Y-70591D02*
X86948Y-70748D01*
X86495Y-70591D02*
X86948Y-70591D01*
G54D17*
X86436Y-73976D02*
X86279Y-74133D01*
X86279Y-74133D02*
X82815Y-74133D01*
X82815Y-74133D02*
X82658Y-73976D01*
X82658Y-73976D02*
X82658Y-70512D01*
X82658Y-70512D02*
X82815Y-70355D01*
G54D18*
X86199Y-70670D02*
G75*
G03X86199Y-70670I-77J0D01*
G74*
G01*
G54D12*
X82949Y-75233D02*
X82949Y-75553D01*
X83389Y-75543D02*
X83389Y-75233D01*
X83489Y-75553D02*
X82849Y-75553D01*
X82849Y-75553D02*
X82849Y-75233D01*
X82849Y-75233D02*
X83489Y-75233D01*
X83489Y-75233D02*
X83489Y-75553D01*
G54D13*
X85655Y-65033D02*
X82455Y-65033D01*
X82455Y-65033D02*
X82455Y-66633D01*
X82455Y-66633D02*
X85655Y-66633D01*
X85655Y-66633D02*
X85655Y-65033D01*
G54D12*
X87517Y-70692D02*
X87837Y-70692D01*
X87827Y-70252D02*
X87517Y-70252D01*
X87837Y-70152D02*
X87837Y-70792D01*
X87837Y-70792D02*
X87517Y-70792D01*
X87517Y-70792D02*
X87517Y-70152D01*
X87517Y-70152D02*
X87837Y-70152D01*
X72286Y-70587D02*
X72286Y-65037D01*
X78186Y-65037D02*
X78186Y-70587D01*
X72286Y-70587D02*
X78186Y-70587D01*
X72286Y-65037D02*
X78186Y-65037D01*
X72860Y-76808D02*
X72860Y-75908D01*
X72860Y-75908D02*
X73360Y-75908D01*
X73360Y-75908D02*
X73360Y-76808D01*
X73360Y-76808D02*
X72860Y-76808D01*
G54D19*
X74068Y-75767D02*
G75*
G03X74068Y-75767I-62J0D01*
G74*
G01*
X74968Y-75429D02*
X74968Y-75829D01*
X73943Y-75429D02*
X73943Y-75829D01*
X74968Y-75829D02*
X73943Y-75829D01*
X73943Y-75429D02*
X74968Y-75429D01*
G54D13*
X73931Y-78686D02*
X77131Y-78686D01*
X77131Y-78686D02*
X77131Y-77086D01*
X77131Y-77086D02*
X73931Y-77086D01*
X73931Y-77086D02*
X73931Y-78686D01*
G54D17*
X76120Y-73717D02*
G75*
G03X76120Y-73717I-100J0D01*
G74*
G01*
X77020Y-73917D02*
X75820Y-73917D01*
X75820Y-73917D02*
X75820Y-72717D01*
X75820Y-72717D02*
X77020Y-72717D01*
X77020Y-72717D02*
X77020Y-73917D01*
G54D12*
X73537Y-74884D02*
X73537Y-75784D01*
X73537Y-75784D02*
X73037Y-75784D01*
X73037Y-75784D02*
X73037Y-74884D01*
X73037Y-74884D02*
X73537Y-74884D01*
X72699Y-75114D02*
X72379Y-75114D01*
X72389Y-75554D02*
X72699Y-75554D01*
X72379Y-75654D02*
X72379Y-75014D01*
X72379Y-75014D02*
X72699Y-75014D01*
X72699Y-75014D02*
X72699Y-75654D01*
X72699Y-75654D02*
X72379Y-75654D01*
G54D13*
X71994Y-73372D02*
X71994Y-74370D01*
X71994Y-74370D02*
X72494Y-74370D01*
X72494Y-74370D02*
X72494Y-73372D01*
X72494Y-73372D02*
X71994Y-73372D01*
G54D12*
X80607Y-76481D02*
X80307Y-76281D01*
X81307Y-76481D02*
X80282Y-76481D01*
X80282Y-76481D02*
X80282Y-75881D01*
X80282Y-75881D02*
X81307Y-75881D01*
X81307Y-75881D02*
X81307Y-76481D01*
X82392Y-76747D02*
X82392Y-76047D01*
X82392Y-76047D02*
X83592Y-76047D01*
X83592Y-76047D02*
X83592Y-76747D01*
X83592Y-76747D02*
X82392Y-76747D01*
X81800Y-77504D02*
X81800Y-78204D01*
X81800Y-78204D02*
X80600Y-78204D01*
X80600Y-78204D02*
X80600Y-77504D01*
X80600Y-77504D02*
X81800Y-77504D01*
M02*
