M48
;DRILL file {Pcbnew (2013-07-07 BZR 4022)-stable} date 3/23/2015 10:09:51 AM
;FORMAT={3:3/ absolute / metric / suppress leading zeros}
FMAT,2
METRIC,TZ
T1C0.635
T2C0.711
T3C0.889
T4C1.001
T5C1.067
T6C2.301
T7C2.438
%
G90
G05
M71
T1
X183800Y-193250
X188100Y-194650
X190700Y-185600
X191850Y-184000
X193100Y-197450
X193600Y-186950
X196250Y-188450
X198850Y-194050
X199550Y-192250
X199900Y-172650
X201150Y-189750
X203250Y-190750
X204500Y-167250
X206250Y-198050
X207000Y-176750
X207250Y-178900
X209750Y-189250
X210750Y-180250
X210750Y-182250
X210750Y-185750
X210750Y-187000
X212500Y-180150
X212900Y-183500
X215000Y-197500
X215500Y-179500
X216250Y-187500
X216250Y-191000
X217500Y-194700
X218250Y-186500
X218700Y-180550
X221200Y-171950
X221200Y-177000
X223500Y-181750
X224350Y-183750
T2
X183500Y-187030
X183500Y-188270
X205000Y-171750
X205000Y-173000
X205000Y-174250
X205000Y-175500
X205000Y-176750
X205000Y-178000
X222500Y-191250
X222500Y-192520
X222500Y-193790
X223250Y-172960
X223250Y-174230
X223250Y-175500
T3
X189351Y-195799
X194349Y-195799
X211001Y-169250
X215999Y-169250
T4
X187544Y-178150
X190084Y-178150
X192116Y-178150
X194656Y-178150
T5
X188350Y-198499
X195350Y-198499
X210000Y-166550
X217000Y-166550
T6
X184496Y-175483
X198212Y-175483
T7
X183000Y-182500
X202000Y-167000
X202000Y-198000
X223000Y-167000
X223000Y-198000
T0
M30
